STARTFONT 2.1
FONT -FontForge-Monaco-Medium-R-Normal--12-120-72-72-P-59-ISO10646-1
SIZE 12 72 72
FONTBOUNDINGBOX 9 15 -1 -3
COMMENT "Generated by fontforge, http://fontforge.sourceforge.net"
STARTPROPERTIES 23
FOUNDRY "FontForge"
FAMILY_NAME "Monaco"
WEIGHT_NAME "Bold"
SLANT "R"
SETWIDTH_NAME "Normal"
ADD_STYLE_NAME ""
PIXEL_SIZE 12
POINT_SIZE 120
RESOLUTION_X 72
RESOLUTION_Y 72
SPACING "P"
AVERAGE_WIDTH 60
CHARSET_REGISTRY "ISO10646"
CHARSET_ENCODING "1"
FONTNAME_REGISTRY ""
CHARSET_COLLECTIONS "ISO8859-5 ISO10646-1"
FONT_NAME "Monaco"
FACE_NAME "Monaco"
FONT_VERSION "001.000"
FONT_ASCENT 10
FONT_DESCENT 2
X_HEIGHT 10
CAP_HEIGHT 7
ENDPROPERTIES
CHARS 261
STARTCHAR space
ENCODING 32
SWIDTH 666 0
DWIDTH 8 0
BBX 1 1 1 0
BITMAP
00
ENDCHAR
STARTCHAR exclam
ENCODING 33
SWIDTH 666 0
DWIDTH 8 0
BBX 2 8 2 0
BITMAP
C0
C0
C0
C0
C0
C0
00
C0
ENDCHAR
STARTCHAR quotedbl
ENCODING 34
SWIDTH 666 0
DWIDTH 8 0
BBX 5 3 2 5
BITMAP
D8
D8
D8
ENDCHAR
STARTCHAR numbersign
ENCODING 35
SWIDTH 666 0
DWIDTH 8 0
BBX 8 8 0 0
BITMAP
36
36
FF
6C
6C
FF
D8
D8
ENDCHAR
STARTCHAR dollar
ENCODING 36
SWIDTH 666 0
DWIDTH 8 0
BBX 7 10 0 -1
BITMAP
0C
7C
DE
D8
7C
36
36
F6
7C
60
ENDCHAR
STARTCHAR percent
ENCODING 37
SWIDTH 666 0
DWIDTH 8 0
BBX 8 8 0 0
BITMAP
61
B3
D6
6C
1E
3B
6D
C6
ENDCHAR
STARTCHAR ampersand
ENCODING 38
SWIDTH 666 0
DWIDTH 8 0
BBX 8 8 0 0
BITMAP
70
D8
E0
70
D8
CF
C6
7B
ENDCHAR
STARTCHAR quotesingle
ENCODING 39
SWIDTH 666 0
DWIDTH 8 0
BBX 2 3 2 5
BITMAP
C0
C0
C0
ENDCHAR
STARTCHAR parenleft
ENCODING 40
SWIDTH 666 0
DWIDTH 8 0
BBX 4 11 2 -2
BITMAP
30
60
60
C0
C0
C0
C0
C0
60
60
30
ENDCHAR
STARTCHAR parenright
ENCODING 41
SWIDTH 666 0
DWIDTH 8 0
BBX 4 11 1 -2
BITMAP
C0
60
60
30
30
30
30
30
60
60
C0
ENDCHAR
STARTCHAR asterisk
ENCODING 42
SWIDTH 666 0
DWIDTH 8 0
BBX 8 6 0 0
BITMAP
18
DB
7E
7E
DB
18
ENDCHAR
STARTCHAR plus
ENCODING 43
SWIDTH 666 0
DWIDTH 8 0
BBX 6 6 1 0
BITMAP
30
30
FC
FC
30
30
ENDCHAR
STARTCHAR comma
ENCODING 44
SWIDTH 666 0
DWIDTH 8 0
BBX 4 4 0 -1
BITMAP
70
70
70
E0
ENDCHAR
STARTCHAR hyphen
ENCODING 45
SWIDTH 666 0
DWIDTH 8 0
BBX 7 2 0 2
BITMAP
FE
FE
ENDCHAR
STARTCHAR period
ENCODING 46
SWIDTH 666 0
DWIDTH 8 0
BBX 3 3 1 0
BITMAP
E0
E0
E0
ENDCHAR
STARTCHAR slash
ENCODING 47
SWIDTH 666 0
DWIDTH 8 0
BBX 6 10 1 -1
BITMAP
0C
0C
18
18
30
30
60
60
C0
C0
ENDCHAR
STARTCHAR zero
ENCODING 48
SWIDTH 666 0
DWIDTH 8 0
BBX 6 8 0 0
BITMAP
78
CC
CC
DC
EC
CC
CC
78
ENDCHAR
STARTCHAR one
ENCODING 49
SWIDTH 666 0
DWIDTH 8 0
BBX 6 8 0 0
BITMAP
30
70
F0
30
30
30
30
FC
ENDCHAR
STARTCHAR two
ENCODING 50
SWIDTH 666 0
DWIDTH 8 0
BBX 6 8 0 0
BITMAP
78
CC
0C
0C
18
30
60
FC
ENDCHAR
STARTCHAR three
ENCODING 51
SWIDTH 666 0
DWIDTH 8 0
BBX 6 8 0 0
BITMAP
78
CC
0C
18
0C
0C
CC
78
ENDCHAR
STARTCHAR four
ENCODING 52
SWIDTH 666 0
DWIDTH 8 0
BBX 6 8 0 0
BITMAP
08
18
38
58
D8
FC
18
18
ENDCHAR
STARTCHAR five
ENCODING 53
SWIDTH 666 0
DWIDTH 8 0
BBX 5 8 0 0
BITMAP
F8
C0
C0
F0
18
18
18
F0
ENDCHAR
STARTCHAR six
ENCODING 54
SWIDTH 666 0
DWIDTH 8 0
BBX 6 8 0 0
BITMAP
78
CC
C0
F8
CC
CC
CC
78
ENDCHAR
STARTCHAR seven
ENCODING 55
SWIDTH 666 0
DWIDTH 8 0
BBX 6 8 0 0
BITMAP
FC
CC
0C
18
30
60
60
60
ENDCHAR
STARTCHAR eight
ENCODING 56
SWIDTH 666 0
DWIDTH 8 0
BBX 6 8 0 0
BITMAP
78
CC
CC
78
CC
CC
CC
78
ENDCHAR
STARTCHAR nine
ENCODING 57
SWIDTH 666 0
DWIDTH 8 0
BBX 6 9 0 -1
BITMAP
78
CC
CC
CC
CC
78
18
30
60
ENDCHAR
STARTCHAR colon
ENCODING 58
SWIDTH 666 0
DWIDTH 8 0
BBX 3 7 2 0
BITMAP
E0
E0
E0
00
E0
E0
E0
ENDCHAR
STARTCHAR semicolon
ENCODING 59
SWIDTH 666 0
DWIDTH 8 0
BBX 4 8 1 -1
BITMAP
70
70
70
00
70
70
70
E0
ENDCHAR
STARTCHAR less
ENCODING 60
SWIDTH 666 0
DWIDTH 8 0
BBX 7 7 0 0
BITMAP
06
1C
70
C0
70
1C
06
ENDCHAR
STARTCHAR equal
ENCODING 61
SWIDTH 666 0
DWIDTH 8 0
BBX 6 5 1 1
BITMAP
FC
FC
00
FC
FC
ENDCHAR
STARTCHAR greater
ENCODING 62
SWIDTH 666 0
DWIDTH 8 0
BBX 7 7 0 0
BITMAP
C0
70
1C
06
1C
70
C0
ENDCHAR
STARTCHAR question
ENCODING 63
SWIDTH 666 0
DWIDTH 8 0
BBX 7 8 0 0
BITMAP
7C
C6
0E
1C
38
30
00
30
ENDCHAR
STARTCHAR at
ENCODING 64
SWIDTH 666 0
DWIDTH 8 0
BBX 7 8 1 -1
BITMAP
7C
C6
DE
D6
D6
DE
C0
7C
ENDCHAR
STARTCHAR A
ENCODING 65
SWIDTH 666 0
DWIDTH 8 0
BBX 7 8 0 0
BITMAP
10
38
38
6C
6C
FE
C6
C6
ENDCHAR
STARTCHAR B
ENCODING 66
SWIDTH 666 0
DWIDTH 8 0
BBX 7 8 0 0
BITMAP
FC
C6
C6
FC
C6
C6
C6
FC
ENDCHAR
STARTCHAR C
ENCODING 67
SWIDTH 666 0
DWIDTH 8 0
BBX 7 8 0 0
BITMAP
7C
C6
C0
C0
C0
C0
C6
7C
ENDCHAR
STARTCHAR D
ENCODING 68
SWIDTH 666 0
DWIDTH 8 0
BBX 7 8 0 0
BITMAP
F8
CC
C6
C6
C6
C6
CC
F8
ENDCHAR
STARTCHAR E
ENCODING 69
SWIDTH 666 0
DWIDTH 8 0
BBX 6 8 0 0
BITMAP
FC
C0
C0
F0
C0
C0
C0
FC
ENDCHAR
STARTCHAR F
ENCODING 70
SWIDTH 666 0
DWIDTH 8 0
BBX 6 8 0 0
BITMAP
FC
C0
C0
F8
C0
C0
C0
C0
ENDCHAR
STARTCHAR G
ENCODING 71
SWIDTH 666 0
DWIDTH 8 0
BBX 7 8 0 0
BITMAP
7C
C6
C0
C0
CE
C6
C6
7C
ENDCHAR
STARTCHAR H
ENCODING 72
SWIDTH 666 0
DWIDTH 8 0
BBX 7 8 0 0
BITMAP
C6
C6
C6
FE
C6
C6
C6
C6
ENDCHAR
STARTCHAR I
ENCODING 73
SWIDTH 666 0
DWIDTH 8 0
BBX 6 8 1 0
BITMAP
FC
30
30
30
30
30
30
FC
ENDCHAR
STARTCHAR J
ENCODING 74
SWIDTH 666 0
DWIDTH 8 0
BBX 7 8 0 0
BITMAP
7E
06
06
06
06
C6
C6
7C
ENDCHAR
STARTCHAR K
ENCODING 75
SWIDTH 666 0
DWIDTH 8 0
BBX 7 8 0 0
BITMAP
CC
D8
F0
E0
F0
D8
CC
C6
ENDCHAR
STARTCHAR L
ENCODING 76
SWIDTH 666 0
DWIDTH 8 0
BBX 6 8 0 0
BITMAP
C0
C0
C0
C0
C0
C0
C0
FC
ENDCHAR
STARTCHAR M
ENCODING 77
SWIDTH 666 0
DWIDTH 8 0
BBX 7 8 0 0
BITMAP
82
C6
EE
FE
D6
C6
C6
C6
ENDCHAR
STARTCHAR N
ENCODING 78
SWIDTH 666 0
DWIDTH 8 0
BBX 7 8 0 0
BITMAP
C6
C6
E6
D6
CE
C6
C6
C6
ENDCHAR
STARTCHAR O
ENCODING 79
SWIDTH 666 0
DWIDTH 8 0
BBX 7 8 0 0
BITMAP
7C
C6
C6
C6
C6
C6
C6
7C
ENDCHAR
STARTCHAR P
ENCODING 80
SWIDTH 666 0
DWIDTH 8 0
BBX 7 8 0 0
BITMAP
FC
C6
C6
C6
C6
FC
C0
C0
ENDCHAR
STARTCHAR Q
ENCODING 81
SWIDTH 666 0
DWIDTH 8 0
BBX 7 10 0 -2
BITMAP
7C
C6
C6
C6
C6
C6
C6
7C
30
1C
ENDCHAR
STARTCHAR R
ENCODING 82
SWIDTH 666 0
DWIDTH 8 0
BBX 7 8 0 0
BITMAP
F8
CC
CC
CC
F8
F8
DC
C6
ENDCHAR
STARTCHAR S
ENCODING 83
SWIDTH 666 0
DWIDTH 8 0
BBX 6 8 0 0
BITMAP
78
CC
C0
78
0C
0C
CC
78
ENDCHAR
STARTCHAR T
ENCODING 84
SWIDTH 666 0
DWIDTH 8 0
BBX 8 8 0 0
BITMAP
FF
18
18
18
18
18
18
18
ENDCHAR
STARTCHAR U
ENCODING 85
SWIDTH 666 0
DWIDTH 8 0
BBX 7 8 0 0
BITMAP
C6
C6
C6
C6
C6
C6
C6
7C
ENDCHAR
STARTCHAR V
ENCODING 86
SWIDTH 666 0
DWIDTH 8 0
BBX 7 8 0 0
BITMAP
C6
C6
C6
C6
6C
6C
38
38
ENDCHAR
STARTCHAR W
ENCODING 87
SWIDTH 666 0
DWIDTH 8 0
BBX 8 8 0 0
BITMAP
C3
C3
DB
DB
DB
7E
5A
5A
ENDCHAR
STARTCHAR X
ENCODING 88
SWIDTH 666 0
DWIDTH 8 0
BBX 7 8 0 0
BITMAP
C6
C6
6C
38
38
6C
C6
C6
ENDCHAR
STARTCHAR Y
ENCODING 89
SWIDTH 666 0
DWIDTH 8 0
BBX 8 8 0 0
BITMAP
C3
C3
66
3C
18
18
18
18
ENDCHAR
STARTCHAR Z
ENCODING 90
SWIDTH 666 0
DWIDTH 8 0
BBX 7 8 0 0
BITMAP
FE
06
0E
1C
38
70
E0
FE
ENDCHAR
STARTCHAR bracketleft
ENCODING 91
SWIDTH 666 0
DWIDTH 8 0
BBX 4 11 2 -2
BITMAP
F0
C0
C0
C0
C0
C0
C0
C0
C0
C0
F0
ENDCHAR
STARTCHAR backslash
ENCODING 92
SWIDTH 666 0
DWIDTH 8 0
BBX 6 10 1 -1
BITMAP
C0
C0
60
60
30
30
18
18
0C
0C
ENDCHAR
STARTCHAR bracketright
ENCODING 93
SWIDTH 666 0
DWIDTH 8 0
BBX 4 11 2 -2
BITMAP
F0
30
30
30
30
30
30
30
30
30
F0
ENDCHAR
STARTCHAR asciicircum
ENCODING 94
SWIDTH 666 0
DWIDTH 8 0
BBX 8 6 0 3
BITMAP
18
3C
3C
66
66
C3
ENDCHAR
STARTCHAR underscore
ENCODING 95
SWIDTH 666 0
DWIDTH 8 0
BBX 6 2 1 -1
BITMAP
FC
FC
ENDCHAR
STARTCHAR grave
ENCODING 96
SWIDTH 666 0
DWIDTH 8 0
BBX 3 2 2 5
BITMAP
C0
60
ENDCHAR
STARTCHAR a
ENCODING 97
SWIDTH 666 0
DWIDTH 8 0
BBX 8 6 0 0
BITMAP
7C
86
7E
C6
C6
7B
ENDCHAR
STARTCHAR b
ENCODING 98
SWIDTH 666 0
DWIDTH 8 0
BBX 7 9 0 0
BITMAP
C0
C0
C0
FC
C6
C6
C6
C6
FC
ENDCHAR
STARTCHAR c
ENCODING 99
SWIDTH 666 0
DWIDTH 8 0
BBX 7 6 0 0
BITMAP
7C
C6
C0
C0
C6
7C
ENDCHAR
STARTCHAR d
ENCODING 100
SWIDTH 666 0
DWIDTH 8 0
BBX 7 9 0 0
BITMAP
06
06
06
7E
C6
C6
C6
C6
7E
ENDCHAR
STARTCHAR e
ENCODING 101
SWIDTH 666 0
DWIDTH 8 0
BBX 7 6 0 0
BITMAP
7C
C6
FC
C0
C6
7C
ENDCHAR
STARTCHAR f
ENCODING 102
SWIDTH 666 0
DWIDTH 8 0
BBX 5 8 1 0
BITMAP
38
60
F8
60
60
60
60
60
ENDCHAR
STARTCHAR g
ENCODING 103
SWIDTH 666 0
DWIDTH 8 0
BBX 7 8 0 -2
BITMAP
7E
C6
C6
C6
C6
7E
06
7C
ENDCHAR
STARTCHAR h
ENCODING 104
SWIDTH 666 0
DWIDTH 8 0
BBX 7 8 0 0
BITMAP
C0
C0
FC
C6
C6
C6
C6
C6
ENDCHAR
STARTCHAR i
ENCODING 105
SWIDTH 666 0
DWIDTH 8 0
BBX 5 9 1 0
BITMAP
60
60
00
E0
60
60
60
68
30
ENDCHAR
STARTCHAR j
ENCODING 106
SWIDTH 666 0
DWIDTH 8 0
BBX 4 11 1 -2
BITMAP
30
30
00
70
30
30
30
30
30
B0
60
ENDCHAR
STARTCHAR k
ENCODING 107
SWIDTH 666 0
DWIDTH 8 0
BBX 6 9 0 0
BITMAP
C0
C0
C0
DC
F8
F0
F8
CC
CC
ENDCHAR
STARTCHAR l
ENCODING 108
SWIDTH 666 0
DWIDTH 8 0
BBX 5 9 1 0
BITMAP
E0
60
60
60
60
60
60
68
30
ENDCHAR
STARTCHAR m
ENCODING 109
SWIDTH 666 0
DWIDTH 8 0
BBX 7 6 0 0
BITMAP
EC
D6
D6
D6
D6
D6
ENDCHAR
STARTCHAR n
ENCODING 110
SWIDTH 666 0
DWIDTH 8 0
BBX 7 6 0 0
BITMAP
BC
C6
C6
C6
C6
C6
ENDCHAR
STARTCHAR o
ENCODING 111
SWIDTH 666 0
DWIDTH 8 0
BBX 7 6 0 0
BITMAP
7C
C6
C6
C6
C6
7C
ENDCHAR
STARTCHAR p
ENCODING 112
SWIDTH 666 0
DWIDTH 8 0
BBX 7 8 0 -2
BITMAP
FC
C6
C6
C6
C6
FC
C0
C0
ENDCHAR
STARTCHAR q
ENCODING 113
SWIDTH 666 0
DWIDTH 8 0
BBX 7 8 0 -2
BITMAP
7E
C6
C6
C6
C6
7E
06
06
ENDCHAR
STARTCHAR r
ENCODING 114
SWIDTH 666 0
DWIDTH 8 0
BBX 7 6 0 0
BITMAP
DC
76
60
60
60
F0
ENDCHAR
STARTCHAR s
ENCODING 115
SWIDTH 666 0
DWIDTH 8 0
BBX 6 6 0 0
BITMAP
78
CC
70
38
CC
78
ENDCHAR
STARTCHAR t
ENCODING 116
SWIDTH 666 0
DWIDTH 8 0
BBX 6 8 0 0
BITMAP
30
30
FC
30
30
30
34
18
ENDCHAR
STARTCHAR u
ENCODING 117
SWIDTH 666 0
DWIDTH 8 0
BBX 7 6 0 0
BITMAP
C6
C6
C6
C6
C6
7A
ENDCHAR
STARTCHAR v
ENCODING 118
SWIDTH 666 0
DWIDTH 8 0
BBX 7 6 0 0
BITMAP
C6
C6
6C
6C
38
38
ENDCHAR
STARTCHAR w
ENCODING 119
SWIDTH 666 0
DWIDTH 8 0
BBX 7 6 0 0
BITMAP
C6
C6
D6
D6
7C
54
ENDCHAR
STARTCHAR x
ENCODING 120
SWIDTH 666 0
DWIDTH 8 0
BBX 7 6 0 0
BITMAP
C6
6C
38
38
6C
C6
ENDCHAR
STARTCHAR y
ENCODING 121
SWIDTH 666 0
DWIDTH 8 0
BBX 7 8 0 -2
BITMAP
C6
C6
6C
3C
18
30
60
C0
ENDCHAR
STARTCHAR z
ENCODING 122
SWIDTH 666 0
DWIDTH 8 0
BBX 6 6 0 0
BITMAP
FC
0C
18
30
60
FC
ENDCHAR
STARTCHAR braceleft
ENCODING 123
SWIDTH 666 0
DWIDTH 8 0
BBX 5 11 1 -2
BITMAP
18
30
30
30
30
E0
30
30
30
30
18
ENDCHAR
STARTCHAR bar
ENCODING 124
SWIDTH 666 0
DWIDTH 8 0
BBX 2 11 3 -2
BITMAP
C0
C0
C0
C0
C0
C0
C0
C0
C0
C0
C0
ENDCHAR
STARTCHAR braceright
ENCODING 125
SWIDTH 666 0
DWIDTH 8 0
BBX 5 11 2 -2
BITMAP
C0
60
60
60
60
38
60
60
60
60
C0
ENDCHAR
STARTCHAR asciitilde
ENCODING 126
SWIDTH 666 0
DWIDTH 8 0
BBX 8 3 0 2
BITMAP
73
DB
CE
ENDCHAR
STARTCHAR guillemotleft
ENCODING 171
SWIDTH 666 0
DWIDTH 8 0
BBX 8 7 0 0
BITMAP
1B
36
6C
D8
6C
36
1B
ENDCHAR
STARTCHAR paragraph
ENCODING 182
SWIDTH 666 0
DWIDTH 8 0
BBX 8 10 0 -1
BITMAP
7F
F6
F6
F6
76
36
36
36
36
7F
ENDCHAR
STARTCHAR periodcentered
ENCODING 183
SWIDTH 1000 0
DWIDTH 8 0
BBX 3 3 3 2
BITMAP
E0
E0
E0
ENDCHAR
STARTCHAR guillemotright
ENCODING 187
SWIDTH 666 0
DWIDTH 8 0
BBX 8 7 0 0
BITMAP
D8
6C
36
1B
36
6C
D8
ENDCHAR
STARTCHAR onehalf
ENCODING 189
SWIDTH 666 0
DWIDTH 8 0
BBX 8 8 0 0
BITMAP
66
EC
6C
F8
1F
33
36
6F
ENDCHAR
STARTCHAR divide
ENCODING 247
SWIDTH 1000 0
DWIDTH 8 0
BBX 6 6 1 0
BITMAP
30
00
FC
FC
00
30
ENDCHAR
STARTCHAR ycircumflex
ENCODING 375
SWIDTH 666 0
DWIDTH 8 0
BBX 8 12 0 -2
BITMAP
18
24
00
81
81
81
81
7F
01
81
81
7E
ENDCHAR
STARTCHAR Alpha
ENCODING 913
SWIDTH 666 0
DWIDTH 8 0
BBX 7 8 0 0
BITMAP
10
38
6C
6C
7C
6C
6C
EE
ENDCHAR
STARTCHAR Beta
ENCODING 914
SWIDTH 666 0
DWIDTH 8 0
BBX 7 8 1 0
BITMAP
F8
6C
6C
7C
66
66
66
FC
ENDCHAR
STARTCHAR Gamma
ENCODING 915
SWIDTH 666 0
DWIDTH 8 0
BBX 6 8 1 0
BITMAP
FC
6C
60
60
60
60
60
F0
ENDCHAR
STARTCHAR Delta
ENCODING 916
SWIDTH 666 0
DWIDTH 8 0
BBX 7 8 0 0
BITMAP
10
38
38
6C
6C
C6
C6
FE
ENDCHAR
STARTCHAR Epsilon
ENCODING 917
SWIDTH 666 0
DWIDTH 8 0
BBX 7 8 1 0
BITMAP
FE
66
60
70
60
60
66
FE
ENDCHAR
STARTCHAR Zeta
ENCODING 918
SWIDTH 666 0
DWIDTH 8 0
BBX 6 8 1 0
BITMAP
FC
0C
0C
38
70
C0
C0
FC
ENDCHAR
STARTCHAR Eta
ENCODING 919
SWIDTH 666 0
DWIDTH 8 0
BBX 7 8 0 0
BITMAP
EE
6C
6C
7C
6C
6C
6C
EE
ENDCHAR
STARTCHAR Theta
ENCODING 920
SWIDTH 666 0
DWIDTH 8 0
BBX 6 8 1 0
BITMAP
78
CC
CC
FC
CC
CC
CC
78
ENDCHAR
STARTCHAR Iota
ENCODING 921
SWIDTH 666 0
DWIDTH 8 0
BBX 6 8 1 0
BITMAP
FC
30
30
30
30
30
30
FC
ENDCHAR
STARTCHAR Kappa
ENCODING 922
SWIDTH 666 0
DWIDTH 8 0
BBX 7 8 1 0
BITMAP
E6
6C
78
70
70
78
6C
E6
ENDCHAR
STARTCHAR Lambda
ENCODING 923
SWIDTH 666 0
DWIDTH 8 0
BBX 7 9 0 0
BITMAP
60
30
30
38
6C
6C
C6
C6
C6
ENDCHAR
STARTCHAR Mu
ENCODING 924
SWIDTH 666 0
DWIDTH 8 0
BBX 7 8 0 0
BITMAP
C6
EE
FE
D6
D6
C6
C6
EE
ENDCHAR
STARTCHAR Nu
ENCODING 925
SWIDTH 666 0
DWIDTH 8 0
BBX 7 8 0 0
BITMAP
EE
66
66
76
7E
6E
66
E6
ENDCHAR
STARTCHAR Xi
ENCODING 926
SWIDTH 666 0
DWIDTH 8 0
BBX 7 8 0 0
BITMAP
FE
FE
82
7C
7C
82
FE
FE
ENDCHAR
STARTCHAR Omicron
ENCODING 927
SWIDTH 666 0
DWIDTH 8 0
BBX 7 8 0 0
BITMAP
7C
C6
C6
C6
C6
C6
C6
7C
ENDCHAR
STARTCHAR Pi
ENCODING 928
SWIDTH 666 0
DWIDTH 8 0
BBX 7 8 0 0
BITMAP
FE
6C
6C
6C
6C
6C
6C
EE
ENDCHAR
STARTCHAR Rho
ENCODING 929
SWIDTH 666 0
DWIDTH 8 0
BBX 6 8 1 0
BITMAP
F8
6C
6C
6C
F8
60
60
E0
ENDCHAR
STARTCHAR Sigma
ENCODING 931
SWIDTH 666 0
DWIDTH 8 0
BBX 7 8 0 0
BITMAP
FE
66
30
18
18
30
66
FE
ENDCHAR
STARTCHAR Tau
ENCODING 932
SWIDTH 666 0
DWIDTH 8 0
BBX 8 8 0 0
BITMAP
FF
DB
18
18
18
18
18
3C
ENDCHAR
STARTCHAR Upsilon
ENCODING 933
SWIDTH 666 0
DWIDTH 8 0
BBX 8 8 0 0
BITMAP
E7
E7
66
3C
18
18
18
3C
ENDCHAR
STARTCHAR Phi
ENCODING 934
SWIDTH 666 0
DWIDTH 8 0
BBX 8 10 0 -1
BITMAP
3C
18
7E
DB
DB
DB
DB
7E
18
18
ENDCHAR
STARTCHAR Chi
ENCODING 935
SWIDTH 666 0
DWIDTH 8 0
BBX 8 8 0 0
BITMAP
E6
66
3C
18
18
3C
66
67
ENDCHAR
STARTCHAR Psi
ENCODING 936
SWIDTH 666 0
DWIDTH 8 0
BBX 8 8 0 0
BITMAP
DB
DB
DB
DB
DB
7E
18
3C
ENDCHAR
STARTCHAR Omegagreek
ENCODING 937
SWIDTH 666 0
DWIDTH 8 0
BBX 7 8 0 0
BITMAP
7C
C6
C6
C6
C6
C6
6C
EE
ENDCHAR
STARTCHAR alpha
ENCODING 945
SWIDTH 666 0
DWIDTH 8 0
BBX 8 7 0 0
BITMAP
03
7B
CE
CE
CE
CE
7B
ENDCHAR
STARTCHAR beta
ENCODING 946
SWIDTH 666 0
DWIDTH 8 0
BBX 6 11 0 -2
BITMAP
C0
F0
D8
D8
FC
CC
CC
CC
F8
C0
C0
ENDCHAR
STARTCHAR gamma
ENCODING 947
SWIDTH 666 0
DWIDTH 8 0
BBX 8 8 0 -2
BITMAP
E7
66
3C
3C
18
18
18
18
ENDCHAR
STARTCHAR delta
ENCODING 948
SWIDTH 666 0
DWIDTH 8 0
BBX 6 8 1 0
BITMAP
FC
60
30
78
CC
CC
CC
78
ENDCHAR
STARTCHAR epsilon
ENCODING 949
SWIDTH 666 0
DWIDTH 8 0
BBX 6 6 1 0
BITMAP
78
CC
60
C0
D8
70
ENDCHAR
STARTCHAR zeta
ENCODING 950
SWIDTH 666 0
DWIDTH 8 0
BBX 6 10 1 -2
BITMAP
FC
0C
38
60
30
60
C0
78
0C
18
ENDCHAR
STARTCHAR eta
ENCODING 951
SWIDTH 666 0
DWIDTH 8 0
BBX 7 8 1 -2
BITMAP
F8
CC
CC
CC
CC
CC
0C
06
ENDCHAR
STARTCHAR theta
ENCODING 952
SWIDTH 666 0
DWIDTH 8 0
BBX 6 8 1 0
BITMAP
78
CC
CC
FC
CC
CC
CC
78
ENDCHAR
STARTCHAR iota
ENCODING 953
SWIDTH 666 0
DWIDTH 8 0
BBX 5 6 2 0
BITMAP
E0
60
60
60
60
38
ENDCHAR
STARTCHAR kappa
ENCODING 954
SWIDTH 666 0
DWIDTH 8 0
BBX 5 6 2 0
BITMAP
D8
F0
E0
E0
F0
D8
ENDCHAR
STARTCHAR lambda
ENCODING 955
SWIDTH 666 0
DWIDTH 8 0
BBX 6 9 1 0
BITMAP
60
60
30
30
78
78
CC
CC
CC
ENDCHAR
STARTCHAR mu
ENCODING 956
SWIDTH 666 0
DWIDTH 8 0
BBX 6 8 1 -2
BITMAP
CC
CC
CC
CC
CC
F8
C0
C0
ENDCHAR
STARTCHAR nu
ENCODING 957
SWIDTH 666 0
DWIDTH 8 0
BBX 7 6 1 0
BITMAP
E6
66
3C
3C
18
18
ENDCHAR
STARTCHAR xi
ENCODING 958
SWIDTH 666 0
DWIDTH 8 0
BBX 6 10 1 -2
BITMAP
78
CC
C0
70
C0
C0
C0
78
0C
18
ENDCHAR
STARTCHAR omicron
ENCODING 959
SWIDTH 666 0
DWIDTH 8 0
BBX 5 6 1 0
BITMAP
70
D8
D8
D8
D8
70
ENDCHAR
STARTCHAR pi
ENCODING 960
SWIDTH 666 0
DWIDTH 8 0
BBX 8 6 0 0
BITMAP
01
7F
B6
36
36
66
ENDCHAR
STARTCHAR rho
ENCODING 961
SWIDTH 666 0
DWIDTH 8 0
BBX 6 8 1 -2
BITMAP
78
CC
CC
CC
CC
F8
C0
C0
ENDCHAR
STARTCHAR sigma1
ENCODING 962
SWIDTH 666 0
DWIDTH 8 0
BBX 7 9 1 -2
BITMAP
02
7E
FC
C0
C0
E0
70
18
08
ENDCHAR
STARTCHAR sigma
ENCODING 963
SWIDTH 666 0
DWIDTH 8 0
BBX 7 6 1 0
BITMAP
7E
CC
CC
CC
CC
78
ENDCHAR
STARTCHAR tau
ENCODING 964
SWIDTH 666 0
DWIDTH 8 0
BBX 8 6 0 0
BITMAP
E7
18
18
18
18
0E
ENDCHAR
STARTCHAR upsilon
ENCODING 965
SWIDTH 666 0
DWIDTH 8 0
BBX 8 6 0 0
BITMAP
EF
66
66
66
66
3C
ENDCHAR
STARTCHAR phi
ENCODING 966
SWIDTH 666 0
DWIDTH 8 0
BBX 8 8 0 -2
BITMAP
4E
DB
DB
DB
DB
7E
18
18
ENDCHAR
STARTCHAR chi
ENCODING 967
SWIDTH 666 0
DWIDTH 8 0
BBX 8 8 0 -2
BITMAP
E6
76
3C
18
18
3C
6E
67
ENDCHAR
STARTCHAR psi
ENCODING 968
SWIDTH 666 0
DWIDTH 8 0
BBX 8 11 0 -2
BITMAP
18
18
DB
DB
DB
DB
DB
DB
7E
18
18
ENDCHAR
STARTCHAR omega
ENCODING 969
SWIDTH 666 0
DWIDTH 8 0
BBX 8 6 0 0
BITMAP
66
C3
DB
DB
DB
7E
ENDCHAR
STARTCHAR Iocyrillic
ENCODING 1025
SWIDTH 666 0
DWIDTH 8 0
BBX 6 10 1 0
BITMAP
CC
00
FC
C0
C0
F0
C0
C0
C0
FC
ENDCHAR
STARTCHAR Acyrillic
ENCODING 1040
SWIDTH 666 0
DWIDTH 8 0
BBX 7 8 0 0
BITMAP
7C
C6
C6
C6
FE
C6
C6
C6
ENDCHAR
STARTCHAR Becyrillic
ENCODING 1041
SWIDTH 666 0
DWIDTH 8 0
BBX 7 8 0 0
BITMAP
FC
C0
C0
FC
C6
C6
C6
FC
ENDCHAR
STARTCHAR Vecyrillic
ENCODING 1042
SWIDTH 666 0
DWIDTH 8 0
BBX 7 8 0 0
BITMAP
F8
CC
CC
FC
C6
C6
C6
FC
ENDCHAR
STARTCHAR Gecyrillic
ENCODING 1043
SWIDTH 666 0
DWIDTH 8 0
BBX 6 8 0 0
BITMAP
FC
C0
C0
C0
C0
C0
C0
C0
ENDCHAR
STARTCHAR Decyrillic
ENCODING 1044
SWIDTH 666 0
DWIDTH 8 0
BBX 8 10 0 -2
BITMAP
3E
66
66
66
66
66
66
FF
C3
C3
ENDCHAR
STARTCHAR Iecyrillic
ENCODING 1045
SWIDTH 666 0
DWIDTH 8 0
BBX 6 8 0 0
BITMAP
FC
C0
C0
F8
C0
C0
C0
FC
ENDCHAR
STARTCHAR Zhecyrillic
ENCODING 1046
SWIDTH 666 0
DWIDTH 8 0
BBX 8 8 0 0
BITMAP
DB
DB
DB
7E
DB
DB
DB
DB
ENDCHAR
STARTCHAR Zecyrillic
ENCODING 1047
SWIDTH 666 0
DWIDTH 8 0
BBX 7 8 0 0
BITMAP
7C
C6
06
3C
06
06
C6
7C
ENDCHAR
STARTCHAR Iicyrillic
ENCODING 1048
SWIDTH 666 0
DWIDTH 8 0
BBX 7 8 0 0
BITMAP
C6
C6
CE
D6
E6
C6
C6
C6
ENDCHAR
STARTCHAR Iishortcyrillic
ENCODING 1049
SWIDTH 666 0
DWIDTH 8 0
BBX 7 10 0 0
BITMAP
6C
38
C6
C6
CE
D6
E6
C6
C6
C6
ENDCHAR
STARTCHAR Kacyrillic
ENCODING 1050
SWIDTH 666 0
DWIDTH 8 0
BBX 7 8 0 0
BITMAP
C4
CC
D8
F8
F8
CC
CC
C6
ENDCHAR
STARTCHAR Elcyrillic
ENCODING 1051
SWIDTH 666 0
DWIDTH 8 0
BBX 7 8 0 0
BITMAP
3E
66
66
66
66
66
66
C6
ENDCHAR
STARTCHAR Emcyrillic
ENCODING 1052
SWIDTH 666 0
DWIDTH 8 0
BBX 7 8 0 0
BITMAP
82
C6
EE
FE
FE
D6
C6
C6
ENDCHAR
STARTCHAR Encyrillic
ENCODING 1053
SWIDTH 666 0
DWIDTH 8 0
BBX 7 8 0 0
BITMAP
C6
C6
C6
FE
C6
C6
C6
C6
ENDCHAR
STARTCHAR Ocyrillic
ENCODING 1054
SWIDTH 666 0
DWIDTH 8 0
BBX 7 8 0 0
BITMAP
7C
C6
C6
C6
C6
C6
C6
7C
ENDCHAR
STARTCHAR Pecyrillic
ENCODING 1055
SWIDTH 666 0
DWIDTH 8 0
BBX 7 8 0 0
BITMAP
FE
C6
C6
C6
C6
C6
C6
C6
ENDCHAR
STARTCHAR Ercyrillic
ENCODING 1056
SWIDTH 666 0
DWIDTH 8 0
BBX 7 8 0 0
BITMAP
FC
C6
C6
C6
FC
C0
C0
C0
ENDCHAR
STARTCHAR Escyrillic
ENCODING 1057
SWIDTH 666 0
DWIDTH 8 0
BBX 7 8 0 0
BITMAP
7C
C6
C0
C0
C0
C0
C6
7C
ENDCHAR
STARTCHAR Tecyrillic
ENCODING 1058
SWIDTH 666 0
DWIDTH 8 0
BBX 8 8 0 0
BITMAP
FF
18
18
18
18
18
18
18
ENDCHAR
STARTCHAR Ucyrillic
ENCODING 1059
SWIDTH 666 0
DWIDTH 8 0
BBX 7 8 0 0
BITMAP
C6
C6
C6
7E
06
06
C6
7C
ENDCHAR
STARTCHAR Efcyrillic
ENCODING 1060
SWIDTH 666 0
DWIDTH 8 0
BBX 8 9 0 0
BITMAP
18
7E
DB
DB
DB
DB
7E
18
18
ENDCHAR
STARTCHAR Khacyrillic
ENCODING 1061
SWIDTH 666 0
DWIDTH 8 0
BBX 7 8 0 0
BITMAP
C6
C6
6C
38
38
6C
C6
C6
ENDCHAR
STARTCHAR Tsecyrillic
ENCODING 1062
SWIDTH 666 0
DWIDTH 8 0
BBX 8 10 0 -2
BITMAP
C6
C6
C6
C6
C6
C6
C6
FF
03
03
ENDCHAR
STARTCHAR Checyrillic
ENCODING 1063
SWIDTH 666 0
DWIDTH 8 0
BBX 7 8 0 0
BITMAP
C6
C6
C6
C6
7E
06
06
06
ENDCHAR
STARTCHAR Shacyrillic
ENCODING 1064
SWIDTH 666 0
DWIDTH 8 0
BBX 8 8 0 0
BITMAP
DB
DB
DB
DB
DB
DB
DB
FF
ENDCHAR
STARTCHAR Shchacyrillic
ENCODING 1065
SWIDTH 666 0
DWIDTH 8 0
BBX 8 10 0 -2
BITMAP
DB
DB
DB
DB
DB
DB
DB
FF
03
03
ENDCHAR
STARTCHAR Hardsigncyrillic
ENCODING 1066
SWIDTH 666 0
DWIDTH 8 0
BBX 8 8 0 0
BITMAP
E0
60
60
7E
63
63
63
7E
ENDCHAR
STARTCHAR Yericyrillic
ENCODING 1067
SWIDTH 666 0
DWIDTH 8 0
BBX 8 8 0 0
BITMAP
C3
C3
C3
F3
DB
DB
DB
F3
ENDCHAR
STARTCHAR Softsigncyrillic
ENCODING 1068
SWIDTH 666 0
DWIDTH 8 0
BBX 7 8 0 0
BITMAP
C0
C0
C0
FC
C6
C6
C6
FC
ENDCHAR
STARTCHAR Ereversedcyrillic
ENCODING 1069
SWIDTH 666 0
DWIDTH 8 0
BBX 7 8 0 0
BITMAP
7C
C6
06
3E
06
06
C6
7C
ENDCHAR
STARTCHAR IUcyrillic
ENCODING 1070
SWIDTH 666 0
DWIDTH 8 0
BBX 8 8 0 0
BITMAP
CE
DB
DB
FB
DB
DB
DB
CE
ENDCHAR
STARTCHAR IAcyrillic
ENCODING 1071
SWIDTH 666 0
DWIDTH 8 0
BBX 7 8 0 0
BITMAP
3E
66
66
66
3E
36
66
C6
ENDCHAR
STARTCHAR acyrillic
ENCODING 1072
SWIDTH 666 0
DWIDTH 8 0
BBX 8 6 0 0
BITMAP
76
CE
C6
C6
C6
7B
ENDCHAR
STARTCHAR becyrillic
ENCODING 1073
SWIDTH 666 0
DWIDTH 8 0
BBX 7 9 0 0
BITMAP
3E
7C
C0
FC
C6
C6
C6
C6
7C
ENDCHAR
STARTCHAR vecyrillic
ENCODING 1074
SWIDTH 666 0
DWIDTH 8 0
BBX 7 6 0 0
BITMAP
F8
CC
FC
C6
C6
FC
ENDCHAR
STARTCHAR gecyrillic
ENCODING 1075
SWIDTH 666 0
DWIDTH 8 0
BBX 5 6 1 0
BITMAP
F8
C0
C0
C0
C0
C0
ENDCHAR
STARTCHAR decyrillic
ENCODING 1076
SWIDTH 666 0
DWIDTH 8 0
BBX 8 8 0 -2
BITMAP
3C
66
66
66
66
FF
C3
C3
ENDCHAR
STARTCHAR iecyrillic
ENCODING 1077
SWIDTH 666 0
DWIDTH 8 0
BBX 7 6 0 0
BITMAP
7C
C6
FE
C0
C6
7C
ENDCHAR
STARTCHAR zhecyrillic
ENCODING 1078
SWIDTH 666 0
DWIDTH 8 0
BBX 8 6 0 0
BITMAP
DB
DB
7E
DB
DB
DB
ENDCHAR
STARTCHAR zecyrillic
ENCODING 1079
SWIDTH 666 0
DWIDTH 8 0
BBX 7 6 0 0
BITMAP
7C
C6
1C
06
C6
7C
ENDCHAR
STARTCHAR iicyrillic
ENCODING 1080
SWIDTH 666 0
DWIDTH 8 0
BBX 7 6 0 0
BITMAP
C6
CE
D6
E6
C6
C6
ENDCHAR
STARTCHAR iishortcyrillic
ENCODING 1081
SWIDTH 666 0
DWIDTH 8 0
BBX 7 8 0 0
BITMAP
6C
38
C6
CE
D6
E6
C6
C6
ENDCHAR
STARTCHAR kacyrillic
ENCODING 1082
SWIDTH 666 0
DWIDTH 8 0
BBX 6 6 0 0
BITMAP
CC
D8
F0
F0
D8
CC
ENDCHAR
STARTCHAR elcyrillic
ENCODING 1083
SWIDTH 666 0
DWIDTH 8 0
BBX 7 6 0 0
BITMAP
3E
66
66
66
66
C6
ENDCHAR
STARTCHAR emcyrillic
ENCODING 1084
SWIDTH 666 0
DWIDTH 8 0
BBX 7 6 0 0
BITMAP
C6
EE
FE
D6
C6
C6
ENDCHAR
STARTCHAR encyrillic
ENCODING 1085
SWIDTH 666 0
DWIDTH 8 0
BBX 7 6 0 0
BITMAP
C6
C6
FE
C6
C6
C6
ENDCHAR
STARTCHAR ocyrillic
ENCODING 1086
SWIDTH 666 0
DWIDTH 8 0
BBX 7 6 0 0
BITMAP
7C
C6
C6
C6
C6
7C
ENDCHAR
STARTCHAR pecyrillic
ENCODING 1087
SWIDTH 666 0
DWIDTH 8 0
BBX 7 6 0 0
BITMAP
FE
C6
C6
C6
C6
C6
ENDCHAR
STARTCHAR ercyrillic
ENCODING 1088
SWIDTH 666 0
DWIDTH 8 0
BBX 7 8 0 -2
BITMAP
FC
C6
C6
C6
C6
FC
C0
C0
ENDCHAR
STARTCHAR escyrillic
ENCODING 1089
SWIDTH 666 0
DWIDTH 8 0
BBX 7 6 0 0
BITMAP
7C
C6
C0
C0
C6
7C
ENDCHAR
STARTCHAR tecyrillic
ENCODING 1090
SWIDTH 666 0
DWIDTH 8 0
BBX 8 6 0 0
BITMAP
FF
18
18
18
18
18
ENDCHAR
STARTCHAR ucyrillic
ENCODING 1091
SWIDTH 666 0
DWIDTH 8 0
BBX 7 8 0 -2
BITMAP
C6
C6
C6
C6
C6
7E
06
FC
ENDCHAR
STARTCHAR efcyrillic
ENCODING 1092
SWIDTH 666 0
DWIDTH 8 0
BBX 8 10 0 -2
BITMAP
18
18
7E
DB
DB
DB
DB
7E
18
18
ENDCHAR
STARTCHAR khacyrillic
ENCODING 1093
SWIDTH 666 0
DWIDTH 8 0
BBX 7 6 0 0
BITMAP
C6
6C
38
38
6C
C6
ENDCHAR
STARTCHAR tsecyrillic
ENCODING 1094
SWIDTH 666 0
DWIDTH 8 0
BBX 7 8 0 -2
BITMAP
CC
CC
CC
CC
CC
FE
06
06
ENDCHAR
STARTCHAR checyrillic
ENCODING 1095
SWIDTH 666 0
DWIDTH 8 0
BBX 7 6 0 0
BITMAP
C6
C6
C6
7E
06
06
ENDCHAR
STARTCHAR shacyrillic
ENCODING 1096
SWIDTH 666 0
DWIDTH 8 0
BBX 8 6 0 0
BITMAP
DB
DB
DB
DB
DB
FF
ENDCHAR
STARTCHAR shchacyrillic
ENCODING 1097
SWIDTH 666 0
DWIDTH 8 0
BBX 8 8 0 -2
BITMAP
DB
DB
DB
DB
DB
FF
01
01
ENDCHAR
STARTCHAR hardsigncyrillic
ENCODING 1098
SWIDTH 666 0
DWIDTH 8 0
BBX 8 6 0 0
BITMAP
E0
60
7E
63
63
7E
ENDCHAR
STARTCHAR yericyrillic
ENCODING 1099
SWIDTH 666 0
DWIDTH 8 0
BBX 7 6 0 0
BITMAP
C6
C6
E6
D6
D6
E6
ENDCHAR
STARTCHAR softsigncyrillic
ENCODING 1100
SWIDTH 666 0
DWIDTH 8 0
BBX 6 6 0 0
BITMAP
C0
C0
F8
CC
CC
F8
ENDCHAR
STARTCHAR ereversedcyrillic
ENCODING 1101
SWIDTH 666 0
DWIDTH 8 0
BBX 7 6 0 0
BITMAP
7C
C6
3E
06
C6
7C
ENDCHAR
STARTCHAR iucyrillic
ENCODING 1102
SWIDTH 666 0
DWIDTH 8 0
BBX 8 6 0 0
BITMAP
CE
DB
FB
DB
DB
CE
ENDCHAR
STARTCHAR iacyrillic
ENCODING 1103
SWIDTH 666 0
DWIDTH 8 0
BBX 7 6 0 0
BITMAP
3E
66
66
3E
66
C6
ENDCHAR
STARTCHAR iocyrillic
ENCODING 1105
SWIDTH 666 0
DWIDTH 8 0
BBX 7 9 0 0
BITMAP
6C
6C
00
7C
C6
FE
C0
C6
7C
ENDCHAR
STARTCHAR uni2010
ENCODING 8208
SWIDTH 666 0
DWIDTH 8 0
BBX 5 2 0 2
BITMAP
F8
F8
ENDCHAR
STARTCHAR emdash
ENCODING 8212
SWIDTH 666 0
DWIDTH 8 0
BBX 7 2 0 2
BITMAP
FE
FE
ENDCHAR
STARTCHAR bullet
ENCODING 8226
SWIDTH 666 0
DWIDTH 8 0
BBX 5 5 1 1
BITMAP
70
F8
F8
F8
70
ENDCHAR
STARTCHAR numero
ENCODING 8470
SWIDTH 666 0
DWIDTH 8 0
BBX 8 8 0 0
BITMAP
D8
D8
F8
F8
DF
DD
DF
DF
ENDCHAR
STARTCHAR arrowleft
ENCODING 8592
SWIDTH 666 0
DWIDTH 8 0
BBX 8 5 0 1
BITMAP
20
40
FF
40
20
ENDCHAR
STARTCHAR arrowup
ENCODING 8593
SWIDTH 666 0
DWIDTH 8 0
BBX 5 8 1 0
BITMAP
20
70
A8
20
20
20
20
20
ENDCHAR
STARTCHAR arrowright
ENCODING 8594
SWIDTH 666 0
DWIDTH 8 0
BBX 8 5 0 1
BITMAP
04
02
FF
02
04
ENDCHAR
STARTCHAR arrowdown
ENCODING 8595
SWIDTH 666 0
DWIDTH 8 0
BBX 5 8 1 0
BITMAP
20
20
20
20
20
A8
70
20
ENDCHAR
STARTCHAR carriagereturn
ENCODING 8629
SWIDTH 666 0
DWIDTH 8 0
BBX 6 8 1 0
BITMAP
04
04
04
24
64
FC
60
20
ENDCHAR
STARTCHAR scanline5.terminal.100
ENCODING 9472
SWIDTH 666 0
DWIDTH 8 0
BBX 9 1 -1 3
BITMAP
FF80
ENDCHAR
STARTCHAR uni2501
ENCODING 9473
SWIDTH 666 0
DWIDTH 8 0
BBX 6 3 0 3
BITMAP
FC
00
FC
ENDCHAR
STARTCHAR boxelement.vert.terminal.100
ENCODING 9474
SWIDTH 666 0
DWIDTH 8 0
BBX 1 14 3 -2
BITMAP
80
80
80
80
80
80
80
80
80
80
80
80
80
80
ENDCHAR
STARTCHAR boxelement.ul.terminal.100
ENCODING 9484
SWIDTH 666 0
DWIDTH 8 0
BBX 5 6 3 -2
BITMAP
F8
80
80
80
80
80
ENDCHAR
STARTCHAR boxelement.ur.terminal.100
ENCODING 9488
SWIDTH 666 0
DWIDTH 8 0
BBX 5 6 -1 -2
BITMAP
F8
08
08
08
08
08
ENDCHAR
STARTCHAR boxelement.ll.terminal.100
ENCODING 9492
SWIDTH 666 0
DWIDTH 8 0
BBX 5 9 3 3
BITMAP
80
80
80
80
80
80
80
80
F8
ENDCHAR
STARTCHAR boxelement.lr.terminal.100
ENCODING 9496
SWIDTH 666 0
DWIDTH 8 0
BBX 5 9 -1 3
BITMAP
08
08
08
08
08
08
08
08
F8
ENDCHAR
STARTCHAR boxelement.ml.terminal.100
ENCODING 9500
SWIDTH 666 0
DWIDTH 8 0
BBX 5 14 3 -2
BITMAP
80
80
80
80
80
80
80
80
F8
80
80
80
80
80
ENDCHAR
STARTCHAR boxelement.mr.terminal.100
ENCODING 9508
SWIDTH 666 0
DWIDTH 8 0
BBX 4 14 0 -2
BITMAP
10
10
10
10
10
10
10
10
F0
10
10
10
10
10
ENDCHAR
STARTCHAR boxelement.mt.terminal.100
ENCODING 9516
SWIDTH 666 0
DWIDTH 8 0
BBX 9 6 -1 -2
BITMAP
FF80
0800
0800
0800
0800
0800
ENDCHAR
STARTCHAR boxelement.mb.terminal.100
ENCODING 9524
SWIDTH 666 0
DWIDTH 8 0
BBX 9 8 -1 3
BITMAP
0800
0800
0800
0800
0800
0800
0800
FF80
ENDCHAR
STARTCHAR boxelement.cross.terminal.100
ENCODING 9532
SWIDTH 666 0
DWIDTH 8 0
BBX 9 14 -1 -2
BITMAP
0800
0800
0800
0800
0800
0800
0800
0800
FF80
0800
0800
0800
0800
0800
ENDCHAR
STARTCHAR uni256D
ENCODING 9581
SWIDTH 666 0
DWIDTH 8 0
BBX 5 7 3 -3
BITMAP
78
80
80
80
80
80
80
ENDCHAR
STARTCHAR uni256E
ENCODING 9582
SWIDTH 666 0
DWIDTH 8 0
BBX 4 7 0 -3
BITMAP
E0
10
10
10
10
10
10
ENDCHAR
STARTCHAR uni256F
ENCODING 9583
SWIDTH 666 0
DWIDTH 8 0
BBX 4 9 0 3
BITMAP
10
10
10
10
10
10
10
10
E0
ENDCHAR
STARTCHAR uni2570
ENCODING 9584
SWIDTH 666 0
DWIDTH 8 0
BBX 5 9 3 3
BITMAP
80
80
80
80
80
80
80
80
78
ENDCHAR
STARTCHAR uni2581
ENCODING 9601
SWIDTH 1000 0
DWIDTH 8 0
BBX 8 4 0 -2
BITMAP
FF
FF
FF
FF
ENDCHAR
STARTCHAR uni2582
ENCODING 9602
SWIDTH 1000 0
DWIDTH 8 0
BBX 8 6 0 -2
BITMAP
FF
FF
FF
FF
FF
FF
ENDCHAR
STARTCHAR uni2583
ENCODING 9603
SWIDTH 1000 0
DWIDTH 8 0
BBX 8 7 0 -2
BITMAP
FF
FF
FF
FF
FF
FF
FF
ENDCHAR
STARTCHAR dnblock
ENCODING 9604
SWIDTH 1000 0
DWIDTH 8 0
BBX 8 8 0 -2
BITMAP
FF
FF
FF
FF
FF
FF
FF
FF
ENDCHAR
STARTCHAR uni2585
ENCODING 9605
SWIDTH 1000 0
DWIDTH 8 0
BBX 8 9 0 -2
BITMAP
FF
FF
FF
FF
FF
FF
FF
FF
FF
ENDCHAR
STARTCHAR uni2586
ENCODING 9606
SWIDTH 1000 0
DWIDTH 8 0
BBX 8 10 0 -2
BITMAP
FF
FF
FF
FF
FF
FF
FF
FF
FF
FF
ENDCHAR
STARTCHAR uni2587
ENCODING 9607
SWIDTH 1000 0
DWIDTH 8 0
BBX 8 11 0 -2
BITMAP
FF
FF
FF
FF
FF
FF
FF
FF
FF
FF
FF
ENDCHAR
STARTCHAR block
ENCODING 9608
SWIDTH 666 0
DWIDTH 8 0
BBX 8 12 0 -2
BITMAP
FF
FF
FF
FF
FF
FF
FF
FF
FF
FF
FF
FF
ENDCHAR
STARTCHAR H18533
ENCODING 9679
SWIDTH 666 0
DWIDTH 8 0
BBX 8 8 0 0
BITMAP
3C
7E
FF
FF
FF
FF
7E
3C
ENDCHAR
STARTCHAR sun
ENCODING 9788
SWIDTH 666 0
DWIDTH 8 0
BBX 8 7 0 0
BITMAP
99
7E
66
C3
66
7E
99
ENDCHAR
STARTCHAR uni2717
ENCODING 10007
SWIDTH 666 0
DWIDTH 8 0
BBX 8 8 0 -1
BITMAP
33
3F
1E
1E
3F
73
E0
C0
ENDCHAR
STARTCHAR uni279C
ENCODING 10140
SWIDTH 1000 0
DWIDTH 8 0
BBX 8 6 0 1
BITMAP
1C
0E
FF
FF
0E
1C
ENDCHAR
STARTCHAR uniE0A0
ENCODING 57504
SWIDTH 666 0
DWIDTH 8 0
BBX 8 12 0 -2
BITMAP
E0
E4
EE
FF
EE
DC
B8
70
E0
E0
E0
E0
ENDCHAR
STARTCHAR uniE0A1
ENCODING 57505
SWIDTH 666 0
DWIDTH 8 0
BBX 8 10 0 -1
BITMAP
C0
C0
C0
C0
F8
33
3B
3F
37
33
ENDCHAR
STARTCHAR uniE0A2
ENCODING 57506
SWIDTH 666 0
DWIDTH 8 0
BBX 8 10 0 -1
BITMAP
3C
66
66
66
FF
F7
F7
F7
E7
7E
ENDCHAR
STARTCHAR uniE0B0
ENCODING 57520
SWIDTH 666 0
DWIDTH 8 0
BBX 6 12 0 -2
BITMAP
80
C0
E0
F0
F8
FC
FC
F8
F0
E0
C0
80
ENDCHAR
STARTCHAR uniE0B1
ENCODING 57521
SWIDTH 666 0
DWIDTH 8 0
BBX 6 12 0 -2
BITMAP
80
40
20
10
08
04
04
08
10
20
40
80
ENDCHAR
STARTCHAR uniE0B2
ENCODING 57522
SWIDTH 666 0
DWIDTH 8 0
BBX 6 12 2 -2
BITMAP
04
0C
1C
3C
7C
FC
FC
7C
3C
1C
0C
04
ENDCHAR
STARTCHAR uniE0B3
ENCODING 57523
SWIDTH 666 0
DWIDTH 8 0
BBX 6 12 2 -2
BITMAP
04
08
10
20
40
80
80
40
20
10
08
04
ENDCHAR
ENDFONT
